<?xml version="1.0" encoding="utf-8"?>
<svg width="715" height="193" viewBox="0 0 715 193" fill="none" xmlns="http://www.w3.org/2000/svg">
  <defs>
    <filter color-interpolation-filters="sRGB" x="-701" y="-179" width="703" height="181" id="filter_1">
      <feFlood flood-opacity="0" result="BackgroundImageFix_1" />
      <feColorMatrix type="matrix" values="0 0 0 0 0 0 0 0 0 0 0 0 0 0 0 0 0 0 1 0" in="SourceAlpha" />
      <feOffset dx="0" dy="4" />
      <feGaussianBlur stdDeviation="2" />
      <feColorMatrix type="matrix" values="0 0 0 0 0 0 0 0 0 0 0 0 0 0 0 0 0 0 0.251 0" />
      <feBlend mode="normal" in2="BackgroundImageFix_1" result="Shadow_2" />
      <feBlend mode="normal" in="SourceGraphic" in2="Shadow_2" result="Shape_3" />
      <feColorMatrix type="matrix" values="0 0 0 0 0 0 0 0 0 0 0 0 0 0 0 0 0 0 1 0" in="SourceAlpha" result="HardAlpha_4" />
      <feOffset dx="0" dy="-18" />
      <feGaussianBlur stdDeviation="9" />
      <feComposite operator="arithmetic" k2="-1" k3="1" in2="HardAlpha_4" />
      <feColorMatrix type="matrix" values="0 0 0 0 0.027 0 0 0 0 0.612 0 0 0 0 1 0 0 0 0.71 0" />
      <feBlend mode="normal" in2="Shape_3" result="InnerShadow_5" />
    </filter>
    <clipPath id="clip_path_2">
      <rect width="703" height="181" />
    </clipPath>
  </defs>
  <g filter="url(#filter_1)" fill="#ffffff" transform="translate(6 -150.852)">
    <g clip-path="url(#clip_path_2)">
      <path d="M32.3438 330.891Q17.2969 330.891 17.2969 323.016L17.2969 162.984Q17.2969 158.906 20.9531 156.867Q24.6094 154.828 32.3438 154.828L43.0313 154.828Q49.0781 154.828 53.0156 156.234Q56.9531 157.641 59.4844 161.719L118.547 252.703L125.297 262.828L125.297 162.984Q125.297 158.906 128.953 156.867Q132.609 154.828 140.344 154.828L147.516 154.828Q155.25 154.828 158.836 156.867Q162.422 158.906 162.422 162.984L162.422 323.016Q162.422 330.891 147.516 330.891L137.953 330.891Q131.766 330.891 127.969 329.555Q124.172 328.219 121.641 324.281L59.7656 229.641L54.4219 221.766L54.4219 323.016Q54.4219 330.891 39.5156 330.891L32.3438 330.891Z" fill="#C62264" />
      <path d="M89.0156 332.578Q66.2344 332.578 49.9922 325.406Q33.75 318.234 25.1719 304.664Q16.5937 291.094 16.5938 271.969L16.5938 162.984Q16.5938 158.906 20.25 156.867Q23.9063 154.828 31.6406 154.828L40.0781 154.828Q47.8125 154.828 51.3984 156.867Q54.9844 158.906 54.9844 162.984L54.9844 269.438Q54.9844 278.156 59.2734 285.047Q63.5625 291.938 71.2969 295.805Q79.0312 299.672 89.0156 299.672Q99 299.672 106.805 295.805Q114.609 291.938 118.969 285.047Q123.328 278.156 123.328 269.438L123.328 162.984Q123.328 158.906 126.914 156.867Q130.5 154.828 138.234 154.828L146.531 154.828Q154.266 154.828 157.852 156.867Q161.438 158.906 161.438 162.984L161.438 271.969Q161.438 291.094 152.859 304.664Q144.281 318.234 128.039 325.406Q111.797 332.578 89.0156 332.578Z" transform="translate(179.719 0)" fill="#2F6E6A" />
      <path d="M93.5156 332.578Q51.3281 332.578 31.2891 310.641Q11.25 288.703 11.25 242.438Q11.25 153.422 94.7813 153.422Q106.172 153.422 118.406 155.672Q130.641 157.922 138.867 161.93Q147.094 165.938 147.094 170.859Q147.094 174.375 144.281 180.07Q141.469 185.766 137.602 190.125Q133.734 194.484 130.781 194.484Q130.078 194.484 126.984 193.078Q120.234 190.266 112.852 188.367Q105.469 186.469 94.0781 186.469Q72 186.469 61.3828 200.461Q50.7656 214.453 50.7656 242.719Q50.7656 270.984 61.4531 285.328Q72.1406 299.672 93.5156 299.672Q104.625 299.672 112.852 297.422Q121.078 295.172 128.953 291.656Q129.375 291.516 131.484 290.602Q133.594 289.688 134.578 289.688Q138.234 289.688 141.609 293.977Q144.984 298.266 147.094 303.68Q149.203 309.094 149.203 311.484Q149.203 318.375 139.992 323.156Q130.781 327.938 117.773 330.258Q104.766 332.578 93.5156 332.578Z" transform="translate(357.75 0)" fill="#C62264" />
      <path d="M91.4063 332.578Q65.8125 332.578 47.8828 322.172Q29.9531 311.766 20.6016 291.727Q11.25 271.688 11.25 242.859Q11.25 214.172 20.6016 194.133Q29.9531 174.094 47.8828 163.758Q65.8125 153.422 91.4063 153.422Q117.141 153.422 135.07 163.758Q153 174.094 162.281 194.133Q171.563 214.172 171.563 242.859Q171.563 271.688 162.281 291.727Q153 311.766 135.07 322.172Q117.141 332.578 91.4063 332.578ZM91.4063 299.672Q111.516 299.672 121.781 285.117Q132.047 270.563 132.047 242.859Q132.047 215.156 121.781 200.813Q111.516 186.469 91.4063 186.469Q71.4375 186.469 61.1016 200.883Q50.7656 215.297 50.7656 242.859Q50.7656 270.563 61.1719 285.117Q71.5781 299.672 91.4063 299.672Z" transform="translate(512.578 0)" fill="#FBAE3A" />
    </g>
  </g>
</svg>